<?xml version="1.0" encoding="utf-8"?>
<!-- Uploaded to: SVG Repo, www.svgrepo.com, Generator: SVG Repo Mixer Tools -->
<svg width="800px" height="800px" viewBox="0 0 1024 1024" class="icon"  version="1.1" xmlns="http://www.w3.org/2000/svg"><path d="M315.7248 560.512A50.944 50.944 0 0 0 307.2 588.8v20.5568l-64.5888 0.0256a13.7984 13.7984 0 0 0-13.2352 17.664l37.0688 108.8 0.2048 0.5888c1.792 5.7856 7.1168 9.7024 13.1584 9.7024H307.2v48.8448l-27.392 0.0256a62.4128 62.4128 0 0 1-59.7248-43.648l-37.12-108.8768-0.1024-0.3072-0.1024-0.3072a62.6432 62.6432 0 0 1 59.8528-81.3568zM499.2 133.504a122.368 122.368 0 0 1 122.2144 122.2144 122.368 122.368 0 0 1-122.2144 122.2144 122.368 122.368 0 0 1-122.2144-122.2144A122.368 122.368 0 0 1 499.2 133.4784z m0 48.8704a73.344 73.344 0 1 0 73.216 77.6448l0.128-4.3008a73.4208 73.4208 0 0 0-69.0432-73.216l-4.3008-0.128z" fill="#EF8919" /><path d="M719.2064 603.1104a24.448 24.448 0 0 1-24.448-24.448c0-36.48-11.5712-70.5792-32.5376-96-19.8656-24.0896-45.824-37.3504-73.216-37.3504h-179.6096c-27.3408 0-53.3504 13.2608-73.216 37.3248-20.992 25.4464-32.512 59.52-32.512 96.0256a24.448 24.448 0 0 1-48.896 0c0-47.8208 15.5136-92.9536 43.6992-127.1296a155.4432 155.4432 0 0 1 49.1008-40.0128 134.3488 134.3488 0 0 1 61.824-15.104h179.6096c21.5296 0 42.752 5.1968 61.824 15.104 18.5088 9.472 34.9952 22.9376 49.1008 40.0384 28.1856 34.1504 43.7248 79.2832 43.7248 127.104a24.448 24.448 0 0 1-24.448 24.448z" fill="#EF8919" /><path d="M498.9952 473.7536l-25.3184 63.744a9.6 9.6 0 0 0 2.176 10.2912l16.7936 16.7936c3.712 3.7376 9.728 3.7632 13.4912 0.0768l16.64-16.64a9.472 9.472 0 0 0 2.048-10.2912l-25.856-63.9744z" fill="#EF8919" /><path d="M513.9968 491.52h-29.5936a8.3968 8.3968 0 0 1-8.1152-6.3744l-4.0192-16.0256a8.3968 8.3968 0 0 1 8.1664-10.4448h37.6064a8.3968 8.3968 0 0 1 8.1408 10.4448l-3.9936 16.0256a8.3968 8.3968 0 0 1-8.192 6.3744z" fill="#EF8919" /><path d="M761.472 589.2096H420.6592a96.4096 96.4096 0 0 0-96.4096 96.384v15.9488l0.1536 5.0688a96.5632 96.5632 0 0 0 96.256 91.3152h288a96.4096 96.4096 0 0 0 96.384-96.384v-68.7616c0-24.064-19.5072-43.5712-43.5712-43.5712z m-340.8128 51.2l333.1584-0.0256v61.1584c0 24.96-20.224 45.184-45.184 45.184h-288c-23.9104 0-43.6736-18.688-45.0816-42.4192l-0.1024-3.5328v-15.1808c0-24.96 20.224-45.184 45.2096-45.184z" fill="#BA42D6" /></svg>